<svg id="Layer_1" data-name="Layer 1" xmlns="http://www.w3.org/2000/svg" viewBox="0 0 100 100"><defs><style>.cls-1{fill:#222829;}</style></defs><title>PVS_icon_</title><path class="cls-1" d="M50,82a1,1,0,0,1-.59-.2l-23-17A1,1,0,0,1,26,64V19a1,1,0,0,1,1.45-.89l9.17,4.59,2.52-4.21A1,1,0,0,1,40,18H60a1,1,0,0,1,.86.49l2.52,4.21,9.17-4.59A1,1,0,0,1,74,19V64a1,1,0,0,1-.41.8l-23,17A1,1,0,0,1,50,82ZM28,63.5,50,79.76,72,63.5V20.62l-8.55,4.28a1,1,0,0,1-1.3-.38L59.43,20H40.57l-2.71,4.51a1,1,0,0,1-1.3.38L28,20.62Z"/><path class="cls-1" d="M50,77a1,1,0,0,1-.59-.2l-19-14A1,1,0,0,1,30,62V21h2V61.5L50,74.76,68,61.5V21h2V62a1,1,0,0,1-.41.8l-19,14A1,1,0,0,1,50,77Z"/><rect class="cls-1" x="36" y="24" width="2" height="5"/><rect class="cls-1" x="62" y="24" width="2" height="5"/><path class="cls-1" d="M50,45a8,8,0,1,1,8-8A8,8,0,0,1,50,45Zm0-14a6,6,0,1,0,6,6A6,6,0,0,0,50,31Z"/><polygon class="cls-1" points="55 54 51 54 51 44 53 44 53 52 55 52 55 54"/><polygon class="cls-1" points="53 65 47 65 47 44 49 44 49 63 51 63 51 60 53 60 53 58 51 58 51 56 55 56 55 62 53 62 53 65"/><rect class="cls-1" x="48" y="33" width="4" height="2"/><rect class="cls-1" x="36" y="31" width="2" height="2"/><rect class="cls-1" x="36" y="35" width="2" height="2"/><rect class="cls-1" x="36" y="39" width="2" height="2"/><rect class="cls-1" x="62" y="31" width="2" height="2"/><rect class="cls-1" x="62" y="35" width="2" height="2"/><rect class="cls-1" x="62" y="39" width="2" height="2"/></svg>