<?xml version="1.0" encoding="utf-8"?>
<!-- Generator: Adobe Illustrator 20.1.0, SVG Export Plug-In . SVG Version: 6.00 Build 0)  -->
<svg version="1.1" id="Layer_1" xmlns="http://www.w3.org/2000/svg" xmlns:xlink="http://www.w3.org/1999/xlink" x="0px" y="0px"
	 viewBox="0 0 280 64" style="enable-background:new 0 0 280 64;" xml:space="preserve">
<style type="text/css">
	.st0{fill:#FFFFFF;}
</style>
<path class="st0" d="M65.7,48.1v-2.9h0.9c1.2,0,1.8,0.5,1.8,1.5c0,0.7-0.3,1.6-1.8,1.6h-0.9V48.1z M63.4,43.8c0,0.4,0,9.1,0,9.5
	c0.3,0,1.9,0,2.3,0c0-0.3,0-3.5,0-3.5h1.2c2.4,0,3.7-1.1,3.7-3c0-2.1-1.3-3.1-4.2-3.1C66.4,43.8,63.8,43.8,63.4,43.8z M12.3,51.5
	v-6.2h1.2c2.1,0,3.3,1.2,3.3,3.2c0,2-1.2,3.2-3.3,3.2h-1.2V51.5z M10,43.8c0,0.4,0,9.1,0,9.5c0.3,0,3.4,0,3.4,0
	c3.8,0,5.7-1.6,5.7-4.8c0-3.3-1.7-4.7-5.7-4.7C13.4,43.8,10.3,43.8,10,43.8z M23.9,47.5L23.9,47.5l-1,2.9h1.8L23.9,47.5z M22.7,46
	h2.4l2.8,7.3h-2.1l-0.5-1.6h-2.7l-0.6,1.6h-2L22.7,46z M29.6,53.3h1.8l-0.1-5h0l2.6,5h2.4V46h-1.8l0,5h0L32,46h-2.5V53.3z
	 M38.6,53.3h2V46h-2V53.3z M42.8,53.1c0.7,0.2,1.5,0.3,2.2,0.3c1.6,0,3.2-0.5,3.2-2.4c0-2.6-3.5-1.8-3.5-3c0-0.6,0.8-0.7,1.3-0.7
	c0.6,0,1.1,0.1,1.6,0.3l0.1-1.5c-0.5-0.2-1.2-0.3-1.9-0.3c-1.5,0-3.2,0.5-3.2,2.2c0,2.7,3.5,1.8,3.5,3.2c0,0.6-0.6,0.7-1.2,0.7
	c-0.8,0-1.5-0.2-2-0.5L42.8,53.1z M50.2,53.3h2v-3.1h2.3v3.1h2V46h-2v2.8h-2.3V46h-2V53.3z M74.6,47.5L74.6,47.5l-1,2.9h1.8
	L74.6,47.5z M73.4,46h2.4l2.8,7.3h-2.1l-0.5-1.6h-2.7l-0.6,1.6h-2L73.4,46z M80.8,53.3h2v-5.9h1.8V46H79v1.4h1.8V53.3z M86.6,53.3
	h5.3v-1.4h-3.3v-1.7h3v-1.4h-3v-1.5h3.2V46h-5.2V53.3z M93.9,53.3h1.8l-0.1-5h0l2.6,5h2.4V46h-1.8l0,5h0l-2.5-5h-2.5
	C93.9,46,93.9,53.3,93.9,53.3z M104.4,53.3h2v-5.9h1.8V46h-5.6v1.4h1.8V53.3z M117.7,47.5L117.7,47.5l-1,2.9h1.8L117.7,47.5z
	 M116.5,46h2.4l2.8,7.3h-2.1l-0.5-1.6h-2.7l-0.6,1.6h-2L116.5,46z M123.3,53.3h1.8l-0.1-5h0l2.6,5h2.4V46h-1.8l0,5h0l-2.5-5h-2.5
	L123.3,53.3L123.3,53.3z M134.3,51.8h0.8c1.5,0,2.3-0.8,2.3-2.2c0-1.5-0.8-2.2-2.3-2.2h-0.8V51.8z M132.3,46h2.7
	c2.5,0,4.3,0.8,4.3,3.6c0,2.7-1.8,3.7-4.3,3.7h-2.7V46z M144.7,43.8c0,0.3,0,1.3,0,1.6c0.3,0,2.4,0,2.4,0s0,7.6,0,7.9
	c0.3,0,1.9,0,2.3,0c0-0.4,0-7.9,0-7.9s2.1,0,2.4,0c0-0.3,0-1.3,0-1.6C151.4,43.8,145,43.8,144.7,43.8z M155,49h0.5
	c0.6,0,1.4,0,1.4-0.8c0-0.7-0.7-0.8-1.4-0.8H155V49z M153,46h3.5c1.3,0,2.4,0.6,2.4,1.8c0,1-0.5,1.6-1.4,1.8v0
	c0.6,0.2,0.7,0.7,1,1.6l0.7,2h-2l-0.4-1.3c-0.4-1.3-0.7-1.6-1.4-1.6H155v2.9h-2L153,46L153,46z M164.3,47.5L164.3,47.5l-1,2.9h1.8
	L164.3,47.5z M163.1,46h2.4l2.8,7.3h-2.1l-0.5-1.6h-2.7l-0.6,1.6h-2L163.1,46z M171.8,51.8h0.8c1.5,0,2.3-0.8,2.3-2.2
	c0-1.5-0.8-2.2-2.3-2.2h-0.8V51.8z M169.9,46h2.7c2.5,0,4.3,0.8,4.3,3.6c0,2.7-1.8,3.7-4.3,3.7h-2.7V46z M178.7,53.3h5.3v-1.4h-3.3
	v-1.7h3v-1.4h-3v-1.5h3.2V46h-5.2L178.7,53.3L178.7,53.3z M186.1,53.3h1.9l0-5.6h0l1.8,5.6h1.8l1.9-5.6h0l0,5.6h1.9V46h-3l-1.6,4.9
	h0l-1.6-4.9h-3.1L186.1,53.3L186.1,53.3z M200.9,47.5L200.9,47.5l-1,2.9h1.8L200.9,47.5z M199.7,46h2.4l2.8,7.3h-2.1l-0.5-1.6h-2.8
	l-0.6,1.6h-2L199.7,46z M208.6,49h0.5c0.6,0,1.4,0,1.4-0.8c0-0.7-0.7-0.8-1.4-0.8h-0.5V49z M206.6,46h3.5c1.3,0,2.4,0.6,2.4,1.8
	c0,1-0.5,1.6-1.4,1.8v0c0.6,0.2,0.7,0.7,1,1.6l0.7,2h-2l-0.4-1.3c-0.4-1.3-0.7-1.6-1.4-1.6h-0.4v2.9h-2L206.6,46L206.6,46z
	 M214.7,53.3h2V50h0l2.3,3.3h3.4l-3.8-3.9l3.6-3.4h-3.3l-2.2,3h0v-3h-2L214.7,53.3L214.7,53.3z M229.3,48.5c0-2.1,0.9-3.3,2.4-3.3
	c1.5,0,2.4,1.3,2.4,3.3c0,1.6-0.6,3.3-2.4,3.3C229.9,51.9,229.3,50.1,229.3,48.5z M227,48.5c0,3.1,1.7,4.9,4.8,4.9
	c3,0,4.8-1.8,4.8-4.9c0-3.2-1.7-4.9-4.8-4.9C228.6,43.6,227,45.4,227,48.5z M238.5,53.3h2v-2.9h2.8v-1.4h-2.8v-1.6h2.9V46h-4.9
	L238.5,53.3L238.5,53.3z M245.3,53.3h2v-2.9h2.8v-1.4h-2.8v-1.6h2.9V46h-4.9L245.3,53.3L245.3,53.3z M252.2,53.3h2V46h-2V53.3z
	 M262.4,51.6c-0.5,0.2-1.2,0.4-1.8,0.4c-1.4,0-2.4-0.9-2.4-2.3c0-1.4,0.9-2.4,2.3-2.4c0.7,0,1.3,0.2,1.9,0.5l0.2-1.6
	c-0.7-0.2-1.4-0.4-2.2-0.4c-2.4,0-4.2,1.3-4.2,3.8c0,2.8,2.3,3.8,4.2,3.8c1,0,1.6-0.2,2.2-0.3L262.4,51.6z M264.4,53.3h5.6v-1.4
	h-3.6v-1.7h3.3v-1.4h-3.3v-1.5h3.5V46h-5.5V53.3z M130.5,30.1c-21.2,0.5-41.4,2.7-58.9,6.4v1.3c17.1-3.6,37.2-5.9,58.9-6.4V30.1z
	 M149.5,31.3c21.7,0.5,41.8,2.8,58.9,6.4v-1.3c-17.5-3.7-37.7-5.9-58.9-6.4L149.5,31.3L149.5,31.3z M133.4,27.7v1.4h13.3v-1.4H133.4
	z M136.7,23.8c-0.7,0-1.3,0.6-1.3,1.3c0,0.7,0.6,1.3,1.3,1.3c0.7,0,1.3-0.6,1.3-1.3C138,24.3,137.4,23.8,136.7,23.8z M143.3,23.8
	c-0.7,0-1.3,0.6-1.3,1.3c0,0.7,0.6,1.3,1.3,1.3c0.7,0,1.3-0.6,1.3-1.3C144.6,24.3,144,23.8,143.3,23.8z M143.3,23.8
	c-0.7,0-1.3,0.6-1.3,1.3c0,0.7,0.6,1.3,1.3,1.3c0.7,0,1.3-0.6,1.3-1.3C144.6,24.3,144,23.8,143.3,23.8z M146.7,23.8
	c-0.7,0-1.3,0.6-1.3,1.3c0,0.7,0.6,1.3,1.3,1.3c0.7,0,1.3-0.6,1.3-1.3C147.9,24.3,147.4,23.8,146.7,23.8z M132.1,25
	c0,0.7,0.6,1.3,1.3,1.3s1.3-0.6,1.3-1.3c0-0.7-0.6-1.3-1.3-1.3C132.7,23.8,132.1,24.3,132.1,25z M141.7,12.6v-0.8h-1.2v-1.2h-0.8
	v1.2h-1.2v0.8h1.2v1.3c-0.7,0.2-1.2,0.8-1.2,1.6c0,0.9,0.7,1.6,1.6,1.6c0.9,0,1.6-0.7,1.6-1.6c0-0.7-0.5-1.4-1.2-1.6v-1.3
	C140.4,12.6,141.7,12.6,141.7,12.6z M133.4,29.9v1.4h13.3v-1.4H133.4z M140,23.8c-0.7,0-1.3,0.6-1.3,1.3c0,0.7,0.6,1.3,1.3,1.3
	c0.7,0,1.3-0.6,1.3-1.3C141.3,24.3,140.7,23.8,140,23.8z M149.9,19c-0.9-0.9-2.5-0.9-4.1-0.4c0-0.2-0.1-0.4-0.2-0.6
	c-0.2-0.4-0.7-1-1.8-1.1c-1.2-0.1-2.8,0.6-3.8,1.5c-1-0.9-2.6-1.6-3.8-1.5c-1.1,0.1-1.6,0.7-1.8,1.1c-0.1,0.2-0.1,0.4-0.2,0.6
	c-1.6-0.5-3.2-0.5-4.1,0.4c-0.4,0.4-0.6,0.9-0.6,1.4c0,1.1,1,2.3,2.3,3.5c0.1-0.1,0.1-0.2,0.2-0.3c0.3-0.3,0.7-0.5,1.1-0.5
	c-1.1-1-2.1-2.1-2.1-2.7c0-0.1,0-0.2,0.1-0.3c0.5-0.5,1.8-0.4,3.2,0.2c0.3,0.9,0.7,1.9,1.5,3.1c0.3-0.1,0.6-0.2,0.9-0.2
	c0.3,0,0.6,0.1,0.9,0.2c-0.2-0.3-0.3-0.5-0.3-0.5c-1.4-2.2-1.6-3.3-1.6-3.8c0-0.2,0-0.3,0.1-0.3c0.1-0.1,0.3-0.2,0.6-0.3
	c0.9-0.1,2.4,0.6,2.9,1.4v3.4c0.2-0.1,0.5-0.2,0.8-0.2c0.3,0,0.5,0.1,0.8,0.2v-3.4c0.6-0.8,2-1.5,2.9-1.4c0.3,0,0.5,0.1,0.6,0.3
	c0,0,0.1,0.1,0.1,0.3c0,0.5-0.2,1.6-1.6,3.8c0,0-0.1,0.2-0.3,0.5c0.3-0.1,0.6-0.2,0.9-0.2c0.3,0,0.6,0.1,0.9,0.2
	c0.7-1.2,1.2-2.2,1.5-3.1c1.4-0.5,2.7-0.6,3.2-0.2c0.1,0.1,0.1,0.2,0.1,0.3c0,0.6-1.1,1.7-2.1,2.7c0.4,0.1,0.8,0.2,1.1,0.5
	c0.1,0.1,0.2,0.2,0.2,0.3c1.3-1.2,2.3-2.4,2.3-3.5C150.6,19.9,150.4,19.4,149.9,19z"/>
</svg>
