<svg id="Layer_1" data-name="Layer 1" xmlns="http://www.w3.org/2000/svg" viewBox="0 0 100 100"><defs><style>.cls-1{fill:#363f40;}</style></defs><title>PVS_icon_</title><path class="cls-1" d="M79.56,55.17,69.48,40.87l-.28-.4a.66.66,0,0,0-.2-.18l-7.36-4.5L62.88,35a.66.66,0,0,0-.69-1.13l-1.42.87a.65.65,0,0,0-.26.32L50.35,28.89l-.06,0a.66.66,0,0,0,.37-.59V26.62a.66.66,0,1,0-1.33,0v1.66a.66.66,0,0,0,.38.59l-.07,0L39.63,35l-.84-.52a.66.66,0,0,0-.69,1.13l.26.16L31,40.29a.66.66,0,0,0-.2.18L20.44,55.17a.66.66,0,0,0,.2.95l27,16.49a2.57,2.57,0,0,0-.13.37H31.2a2.61,2.61,0,1,0,0,1.33H47.49a2.6,2.6,0,0,0,5,0H68.8a2.61,2.61,0,1,0,0-1.33H52.51a2.6,2.6,0,0,0-.13-.37l27-16.49a.66.66,0,0,0,.2-.95ZM50,52,32.16,41.14l7.52-4.59a.68.68,0,0,0,.18.05.66.66,0,0,0,.66-.56l8.82-5.39v1a.66.66,0,0,0,1.33,0v-1l8.44,5.16-1.17.71a.66.66,0,1,0,.69,1.13L60,36.78a.64.64,0,0,0,.23-.26l7.57,4.63Zm-18.75-9.9L49.33,53.19V71.13a2.58,2.58,0,0,0-.9.43l-26.5-16.2ZM28.69,74.93A1.28,1.28,0,1,1,30,73.64,1.28,1.28,0,0,1,28.69,74.93Zm21.31,0a1.28,1.28,0,0,1-1.28-1.28,1.25,1.25,0,0,1,.31-.83,1.28,1.28,0,0,1,2.25.83A1.28,1.28,0,0,1,50,74.93Zm21.31-2.56A1.28,1.28,0,1,1,70,73.64,1.28,1.28,0,0,1,71.31,72.36Zm-19.74-.81a2.59,2.59,0,0,0-.9-.43V53.2L68.75,42.14l9.31,13.21Z"/><path class="cls-1" d="M50,22.63a.66.66,0,0,0-.66.66V25a.66.66,0,1,0,1.33,0V23.3A.66.66,0,0,0,50,22.63Z"/><path class="cls-1" d="M50.66,16.65a.66.66,0,1,0-1.33,0v1.66a.66.66,0,0,0,1.33,0Z"/><path class="cls-1" d="M50.66,20a.66.66,0,1,0-1.33,0v1.66a.66.66,0,0,0,1.33,0Z"/><path class="cls-1" d="M50,35.59a.66.66,0,0,0,.66-.66V33.27a.66.66,0,0,0-1.33,0v1.66A.66.66,0,0,0,50,35.59Z"/><path class="cls-1" d="M50,38.91a.66.66,0,0,0,.66-.66V36.59a.66.66,0,1,0-1.33,0v1.66A.66.66,0,0,0,50,38.91Z"/><path class="cls-1" d="M60.94,30l1,1.36A.66.66,0,0,0,63,30.6l-1-1.36a.66.66,0,0,0-1.09.77Z"/><path class="cls-1" d="M62.86,32.72l.47.67a.66.66,0,0,0,1,.79l.24-.15a.66.66,0,0,0,.2-.95L63.94,32a.66.66,0,0,0-1.09.77Z"/><path class="cls-1" d="M59,27.29l1,1.36a.66.66,0,1,0,1.09-.77l-1-1.36a.66.66,0,0,0-1.09.77Z"/><path class="cls-1" d="M46.48,19a.66.66,0,0,0,.54-.28l1-1.36a.66.66,0,1,0-1.09-.77l-1,1.36a.66.66,0,0,0,.54,1Z"/><path class="cls-1" d="M57.11,24.57l1,1.36a.66.66,0,0,0,1.09-.77l-1-1.36a.66.66,0,0,0-1.09.77Z"/><path class="cls-1" d="M51.37,16.43l1,1.36A.66.66,0,0,0,53.41,17l-1-1.36a.66.66,0,0,0-1.09.77Z"/><path class="cls-1" d="M53.28,19.14l1,1.36a.66.66,0,1,0,1.09-.77l-1-1.36a.66.66,0,1,0-1.09.77Z"/><path class="cls-1" d="M44.56,21.71a.66.66,0,0,0,.54-.28l1-1.36A.66.66,0,0,0,45,19.3l-1,1.36a.66.66,0,0,0,.54,1Z"/><path class="cls-1" d="M48.39,16.28a.66.66,0,0,0,.54-.28l.49-.69a.66.66,0,0,0,.58.35.66.66,0,0,0,.61-.41.66.66,0,0,0,.89-.95l-1-1.35,0,0-.11-.1-.11-.07-.14,0-.1,0h0a.64.64,0,0,0-.16,0l-.1,0a.66.66,0,0,0-.22.16h0v0a.65.65,0,0,0-.13.26.61.61,0,0,0,0,.08.63.63,0,0,0,0,.07v.27a.66.66,0,0,0-.53.27l-1,1.36a.66.66,0,0,0,.54,1Z"/><path class="cls-1" d="M55.2,21.86l1,1.36a.66.66,0,0,0,1.09-.77l-1-1.36a.66.66,0,1,0-1.09.77Z"/><path class="cls-1" d="M48.7,40.57l-1.42-.87a.66.66,0,0,0-.69,1.13L48,41.7a.66.66,0,0,0,.69-1.13Z"/><path class="cls-1" d="M50.85,40.84l-.18.11v-1a.66.66,0,0,0-1.33,0v1.6a.66.66,0,0,0-.13.14.66.66,0,0,0,.22.91l.22.14a.66.66,0,0,0,.69,0L51.54,42a.66.66,0,0,0-.69-1.13Z"/><path class="cls-1" d="M43,37.1l-1.42-.87a.66.66,0,0,0-.69,1.13l1.42.87A.66.66,0,1,0,43,37.1Z"/><path class="cls-1" d="M45.87,38.83,44.45,38a.66.66,0,1,0-.69,1.13l1.42.87a.66.66,0,0,0,.69-1.13Z"/><path class="cls-1" d="M56.52,37.37l-1.42.87a.66.66,0,1,0,.69,1.13l1.42-.87a.66.66,0,1,0-.69-1.13Z"/><path class="cls-1" d="M53.68,39.11,52.26,40A.66.66,0,1,0,53,41.11l1.42-.87a.66.66,0,1,0-.69-1.13Z"/><path class="cls-1" d="M40.73,27.14a.66.66,0,0,0,.54-.28l1-1.36a.66.66,0,0,0-1.09-.77l-1,1.36a.66.66,0,0,0,.54,1Z"/><path class="cls-1" d="M36.9,32.57a.66.66,0,0,0,.54-.28l1-1.36a.66.66,0,1,0-1.09-.77l-1,1.36a.66.66,0,0,0,.54,1Z"/><path class="cls-1" d="M42.65,24.42a.66.66,0,0,0,.54-.28l1-1.36A.66.66,0,1,0,43.06,22l-1,1.36a.66.66,0,0,0,.54,1Z"/><path class="cls-1" d="M38.82,29.85a.66.66,0,0,0,.54-.28l1-1.36a.66.66,0,1,0-1.09-.77l-1,1.36a.66.66,0,0,0,.54,1Z"/><path class="cls-1" d="M35.46,34l1.21.74a.66.66,0,0,0,.69-1.13l-.76-.46a.66.66,0,0,0-1.2-.29l-.14.2a.67.67,0,0,0,.2,1Z"/><path class="cls-1" d="M70.73,83.56l-6.15-2.49a.67.67,0,0,0-.25,0H29.52a.66.66,0,0,0-.66.66v5a.66.66,0,0,0,.66.66H64.33a.67.67,0,0,0,.25,0l6.15-2.49a.66.66,0,0,0,0-1.23ZM42.31,82.35h19.9V86H42.31ZM41,86H35.83V82.35H41Zm-10.8-3.65H34.5V86H30.18Zm34,3.65h-.67V82.35h.67l4.51,1.83Z"/><path class="cls-1" d="M37.07,84.66h1.12a.66.66,0,1,0,0-1.33H37.07a.66.66,0,1,0,0,1.33Z"/></svg>