<svg id="Layer_1" data-name="Layer 1" xmlns="http://www.w3.org/2000/svg" viewBox="0 0 100 100"><defs><style>.cls-1{fill:#363f40;}</style></defs><title>PVS_icon_</title><path class="cls-1" d="M36,77a1,1,0,0,0-1-1H32V57H65a1,1,0,0,0,.71-.29l16-16a1,1,0,0,0,0-1.41l-16-16A1,1,0,0,0,65,23H32V21a3,3,0,0,0-6,0V76H23a1,1,0,0,0-1,1v3H18v2H82V80H36ZM28,21a1,1,0,0,1,2,0v2H28Zm0,4H64.59l15,15-15,15H28Zm0,32h2V76H28Zm6,23H24V78H34Z"/><rect class="cls-1" x="34" y="39" width="2" height="2"/><rect class="cls-1" x="34" y="35" width="2" height="2"/><rect class="cls-1" x="34" y="43" width="2" height="2"/><rect class="cls-1" x="30" y="27" width="2" height="26"/><path class="cls-1" d="M51,29A11,11,0,1,0,62,40,11,11,0,0,0,51,29Zm0,20a9,9,0,1,1,9-9A9,9,0,0,1,51,49Z"/><path class="cls-1" d="M55.63,38.41c0-2.17-1.47-3.41-4-3.41H47.56V45h1.68V42h2.82l1.83,3h1.91l-2.24-3.34A3.21,3.21,0,0,0,55.63,38.41Zm-4,2.06H49.24v-4h2.37c1.54,0,2.43.63,2.43,1.94S53.15,40.47,51.61,40.47Z"/></svg>