<svg id="Layer_1" data-name="Layer 1" xmlns="http://www.w3.org/2000/svg" viewBox="0 0 100 100"><defs><style>.cls-1{fill:#363f40;}</style></defs><title>PVS_icon_</title><path class="cls-1" d="M75.62,45.41C69.48,41.26,60.2,35,50,35S30.52,41.26,24.38,45.41C21.64,47.25,19.06,49,18,49v2c1.06,0,3.64,1.75,6.38,3.59C30.52,58.74,39.8,65,50,65s19.48-6.26,25.62-10.41C78.36,52.75,80.94,51,82,51V49C80.94,49,78.36,47.25,75.62,45.41ZM63,50A13,13,0,1,1,50,37,13,13,0,0,1,63,50ZM25.5,52.94c-1.82-1.23-3.33-2.25-4.58-2.94,1.26-.69,2.76-1.71,4.58-2.94,3.75-2.53,8.7-5.87,14.26-8a14.93,14.93,0,0,0,0,21.86C34.2,58.8,29.25,55.46,25.5,52.94Zm49,0c-3.75,2.53-8.7,5.87-14.26,8a14.93,14.93,0,0,0,0-21.86c5.55,2.12,10.51,5.46,14.26,8,1.82,1.23,3.33,2.25,4.58,2.94C77.83,50.69,76.32,51.71,74.5,52.94Z"/><rect class="cls-1" x="67" y="45" width="2" height="2"/><rect class="cls-1" x="67" y="69" width="2" height="2"/><rect class="cls-1" x="67" y="29" width="2" height="2"/><rect class="cls-1" x="67" y="37" width="2" height="2"/><rect class="cls-1" x="67" y="33" width="2" height="2"/><rect class="cls-1" x="31" y="33" width="2" height="2"/><rect class="cls-1" x="67" y="61" width="2" height="2"/><rect class="cls-1" x="67" y="65" width="2" height="2"/><rect class="cls-1" x="31" y="65" width="2" height="2"/><rect class="cls-1" x="67" y="49" width="2" height="2"/><rect class="cls-1" x="67" y="53" width="2" height="2"/><rect class="cls-1" x="31" y="45" width="2" height="2"/><rect class="cls-1" x="31" y="69" width="2" height="2"/><rect class="cls-1" x="51" y="25" width="2" height="2"/><rect class="cls-1" x="47" y="25" width="2" height="2"/><rect class="cls-1" x="43" y="25" width="2" height="2"/><rect class="cls-1" x="39" y="25" width="2" height="2"/><rect class="cls-1" x="35" y="25" width="2" height="2"/><rect class="cls-1" x="59" y="25" width="2" height="2"/><rect class="cls-1" x="63" y="25" width="2" height="2"/><rect class="cls-1" x="55" y="25" width="2" height="2"/><rect class="cls-1" x="51" y="73" width="2" height="2"/><rect class="cls-1" x="47" y="73" width="2" height="2"/><rect class="cls-1" x="43" y="73" width="2" height="2"/><rect class="cls-1" x="39" y="73" width="2" height="2"/><rect class="cls-1" x="35" y="73" width="2" height="2"/><rect class="cls-1" x="59" y="73" width="2" height="2"/><rect class="cls-1" x="63" y="73" width="2" height="2"/><rect class="cls-1" x="55" y="73" width="2" height="2"/><rect class="cls-1" x="31" y="29" width="2" height="2"/><rect class="cls-1" x="31" y="37" width="2" height="2"/><rect class="cls-1" x="31" y="61" width="2" height="2"/><rect class="cls-1" x="31" y="49" width="2" height="2"/><rect class="cls-1" x="31" y="53" width="2" height="2"/><path class="cls-1" d="M33,19H25v8h8Zm-2,6H27V21h4Z"/><path class="cls-1" d="M75,19H67v8h8Zm-2,6H69V21h4Z"/><path class="cls-1" d="M67,81h8V73H67Zm2-6h4v4H69Z"/><path class="cls-1" d="M25,81h8V73H25Zm2-6h4v4H27Z"/><rect class="cls-1" x="35" y="19" width="30" height="2"/><rect class="cls-1" x="73" y="29" width="2" height="12"/><rect class="cls-1" x="73" y="59" width="2" height="11"/><rect class="cls-1" x="35" y="79" width="30" height="2"/><rect class="cls-1" x="25" y="59" width="2" height="12"/><rect class="cls-1" x="25" y="29" width="2" height="12"/><path class="cls-1" d="M50,61A11,11,0,1,0,39,50,11,11,0,0,0,50,61Zm0-20a9,9,0,1,1-9,9A9,9,0,0,1,50,41Z"/><path class="cls-1" d="M45,50a5,5,0,0,1,5-5V43a7,7,0,0,0-7,7Z"/></svg>